<svg xmlns="http://www.w3.org/2000/svg" viewBox="0 0 512 512">
  <defs>
    <linearGradient id="bg" x1="0" y1="0" x2="1" y2="1">
      <stop offset="0%" stop-color="#0a1628"/>
      <stop offset="100%" stop-color="#162744"/>
    </linearGradient>
    <linearGradient id="gold" x1="0" y1="0" x2="0" y2="1">
      <stop offset="0%" stop-color="#d4aa4f"/>
      <stop offset="100%" stop-color="#b8923e"/>
    </linearGradient>
  </defs>
  <!-- Shield background -->
  <path d="M256 28 L462 120 C462 120 472 310 256 484 C40 310 50 120 50 120 Z" fill="url(#bg)" stroke="#b8923e" stroke-width="8"/>
  <!-- Inner shield line -->
  <path d="M256 60 L432 140 C432 140 440 300 256 452 C72 300 80 140 80 140 Z" fill="none" stroke="#b8923e" stroke-width="2" opacity="0.3"/>
  <!-- Horizontal gold bar -->
  <rect x="120" y="240" width="272" height="3" rx="1.5" fill="url(#gold)" opacity="0.5"/>
  <!-- Letters BH -->
  <text x="256" y="230" text-anchor="middle" font-family="Georgia, 'Times New Roman', serif" font-size="140" font-weight="bold" fill="url(#gold)" letter-spacing="-5">BH</text>
  <!-- Subtext -->
  <text x="256" y="295" text-anchor="middle" font-family="Georgia, 'Times New Roman', serif" font-size="32" fill="#b8923e" letter-spacing="12" opacity="0.8">HELVÉTIA</text>
  <!-- Small star/cross -->
  <path d="M256 340 L260 350 L270 350 L262 356 L265 366 L256 360 L247 366 L250 356 L242 350 L252 350 Z" fill="#b8923e" opacity="0.6"/>
</svg>